<?xml version="1.0" standalone="no"?>
<!DOCTYPE svg PUBLIC "-//W3C//DTD SVG 20010904//EN"
 "http://www.w3.org/TR/2001/REC-SVG-20010904/DTD/svg10.dtd">
<svg version="1.0" xmlns="http://www.w3.org/2000/svg"
 width="1200.000000pt" height="1200.000000pt" viewBox="0 0 1200.000000 1200.000000"
 preserveAspectRatio="xMidYMid meet">
<metadata>
Created by potrace 1.16, written by Peter Selinger 2001-2019
</metadata>
<g transform="translate(0.000000,1200.000000) scale(0.100000,-0.100000)"
fill="#000000" stroke="none">
<path d="M5930 10520 c-58 -32 -541 -301 -1075 -598 l-970 -540 -5 -773 -5
-772 -80 -36 c-96 -42 -1161 -631 -1142 -631 4 0 118 50 254 110 136 61 250
110 253 110 3 0 124 -187 270 -414 146 -228 268 -415 273 -415 6 -1 1065 584
1075 594 1 1 -69 114 -157 251 l-160 248 27 16 c15 9 127 72 250 139 l222 123
0 363 0 364 23 7 c12 4 132 56 266 116 197 87 247 106 257 96 6 -7 68 -101
137 -208 139 -217 388 -603 393 -609 3 -4 134 68 740 405 171 96 319 176 327
180 15 5 17 -26 19 -356 l3 -362 205 -115 c113 -63 232 -129 265 -147 187
-101 305 -169 305 -175 0 -3 -88 -55 -195 -115 -107 -59 -195 -110 -195 -112
0 -5 26 6 255 108 208 92 343 161 440 224 48 31 490 277 688 383 97 53 126 73
65 47 -221 -93 -491 -221 -608 -285 l-145 -81 -3 858 -2 858 -308 171 c-169
94 -655 365 -1081 602 -425 237 -774 431 -775 431 0 -1 -48 -27 -106 -60z"/>
<path d="M6715 6510 l-680 -379 -40 23 c-22 13 -123 70 -225 126 -102 56 -219
121 -260 145 -41 23 -122 68 -180 100 -58 32 -154 86 -215 120 -194 109 -289
162 -312 174 l-23 12 0 -178 0 -178 173 -96 c94 -53 372 -207 617 -344 245
-136 452 -250 460 -252 8 -2 85 35 170 83 85 47 178 99 205 114 82 45 906 505
955 532 l45 26 3 176 c1 97 -1 176 -5 175 -5 0 -314 -171 -688 -379z"/>
<path d="M9400 3865 l0 -65 90 0 90 0 0 65 0 65 -90 0 -90 0 0 -65z"/>
<path d="M856 3844 c-121 -38 -180 -112 -180 -224 0 -137 69 -198 299 -261 98
-26 126 -39 153 -65 48 -48 39 -109 -20 -140 -48 -26 -163 -25 -208 2 -31 18
-72 66 -83 97 -2 8 -25 8 -92 -1 -48 -6 -89 -13 -91 -15 -9 -9 30 -97 58 -131
71 -87 167 -120 333 -115 105 4 117 6 181 39 117 60 165 163 130 282 -28 96
-98 146 -283 199 -124 36 -156 50 -177 81 -22 32 -20 62 8 95 21 24 32 28 92
31 83 4 125 -17 145 -72 15 -40 16 -40 132 -29 75 7 79 12 51 79 -26 63 -63
102 -122 131 -50 25 -70 28 -167 30 -78 2 -124 -2 -159 -13z"/>
<path d="M8573 3844 c-3 -9 -16 -48 -28 -88 l-22 -71 -56 -3 -57 -3 0 -59 0
-60 49 0 49 0 4 -217 c3 -208 4 -220 27 -259 38 -67 86 -88 211 -92 58 -2 130
0 160 5 l55 8 3 63 3 62 -58 -5 c-32 -3 -70 -8 -84 -10 -38 -6 -102 11 -116
31 -10 13 -13 71 -13 216 l0 198 120 0 120 0 0 60 0 60 -120 0 -120 0 0 90 0
90 -60 0 c-47 0 -62 -4 -67 -16z"/>
<path d="M1460 3425 l0 -425 100 0 100 0 0 131 0 130 32 40 c17 21 34 39 37
39 3 0 19 -24 35 -53 16 -28 60 -105 98 -169 l69 -118 114 0 114 0 -150 241
c-86 138 -146 245 -142 252 3 7 67 87 140 179 73 93 133 170 133 173 0 3 -49
5 -109 5 l-110 0 -128 -176 -128 -176 -3 176 -2 176 -100 0 -100 0 0 -425z"/>
<path d="M2280 3425 l0 -425 290 0 290 0 0 75 0 75 -195 0 -195 0 0 350 0 350
-95 0 -95 0 0 -425z"/>
<path d="M3770 3425 l0 -425 100 0 100 0 0 150 0 150 98 0 c116 0 184 17 244
63 61 47 92 114 97 209 4 99 -25 171 -90 217 -72 53 -119 61 -346 61 l-203 0
0 -425z m386 260 c88 -37 80 -190 -13 -226 -13 -5 -58 -9 -99 -9 l-74 0 0 125
0 125 75 0 c44 0 90 -6 111 -15z"/>
<path d="M4910 3679 c-42 -17 -86 -56 -100 -88 -15 -36 -30 -40 -30 -8 0 12
-5 39 -11 60 l-10 37 -90 0 c-81 0 -90 -2 -85 -17 19 -67 26 -170 26 -400 l0
-263 94 0 94 0 4 188 c3 178 4 190 29 237 15 30 42 62 68 80 42 29 46 30 147
28 l104 -1 0 73 c0 57 -3 74 -16 79 -25 10 -197 6 -224 -5z"/>
<path d="M5493 3676 c-121 -39 -181 -117 -204 -265 -27 -175 43 -337 171 -395
69 -31 217 -34 291 -7 78 30 130 78 165 153 26 57 29 73 29 173 0 125 -12 173
-58 241 -23 35 -48 57 -91 79 -52 26 -70 30 -160 32 -65 2 -116 -2 -143 -11z
m197 -131 c44 -23 65 -90 64 -205 0 -161 -38 -220 -138 -220 -103 0 -142 73
-134 249 7 144 39 191 131 191 26 0 61 -7 77 -15z"/>
<path d="M6369 3670 c-20 -10 -50 -35 -67 -54 l-31 -35 -3 47 -3 47 -94 3
c-83 2 -93 1 -87 -13 3 -9 6 -223 6 -476 l0 -459 90 0 90 0 0 183 0 182 27
-34 c56 -71 184 -94 273 -48 98 49 144 155 143 332 0 166 -44 268 -139 322
-51 30 -152 31 -205 3z m99 -133 c38 -41 52 -90 52 -189 0 -51 -5 -110 -11
-131 -34 -122 -153 -136 -211 -24 -18 34 -22 59 -22 137 -1 156 40 230 129
230 30 0 47 -6 63 -23z"/>
<path d="M7032 3671 c-76 -26 -122 -67 -162 -146 -34 -66 -35 -71 -35 -184 0
-111 1 -119 33 -183 38 -78 84 -120 162 -149 45 -17 72 -20 150 -17 106 5 162
24 221 76 36 31 77 97 68 107 -3 3 -40 8 -82 11 l-76 7 -33 -35 c-58 -62 -163
-59 -212 5 -24 31 -52 124 -41 135 3 3 107 6 232 6 l228 1 -4 60 c-9 150 -79
264 -187 304 -71 27 -188 28 -262 2z m212 -122 c31 -24 46 -51 57 -96 l7 -33
-143 0 -143 0 9 43 c6 28 21 53 44 75 30 28 42 32 89 32 39 0 60 -6 80 -21z"/>
<path d="M7990 3679 c-42 -17 -86 -56 -100 -88 -15 -36 -30 -40 -30 -8 0 12
-5 39 -11 60 l-10 37 -90 0 c-81 0 -90 -2 -85 -17 19 -67 26 -170 26 -400 l0
-263 94 0 94 0 4 188 c3 178 4 190 29 237 15 30 42 62 68 80 42 29 46 30 147
28 l104 -1 0 73 c0 57 -3 74 -16 79 -25 10 -197 6 -224 -5z"/>
<path d="M10112 3671 c-76 -26 -122 -67 -162 -146 -34 -66 -35 -71 -35 -184 0
-111 1 -119 33 -183 38 -78 84 -120 162 -149 45 -17 72 -20 150 -17 106 5 162
24 221 76 36 31 77 97 68 107 -3 3 -40 8 -82 11 l-76 7 -33 -35 c-58 -62 -163
-59 -212 5 -24 31 -52 124 -41 135 3 3 107 6 232 6 l228 1 -4 60 c-9 150 -79
264 -187 304 -71 27 -188 28 -262 2z m212 -122 c31 -24 46 -51 57 -96 l7 -33
-143 0 -143 0 9 43 c6 28 21 53 44 75 30 28 42 32 89 32 39 0 60 -6 80 -21z"/>
<path d="M10872 3676 c-126 -41 -184 -160 -133 -273 28 -62 81 -90 240 -129
101 -25 141 -39 154 -55 24 -29 21 -51 -9 -80 -23 -21 -35 -24 -108 -24 -94 0
-129 14 -148 58 -13 28 -14 29 -68 23 -30 -4 -68 -10 -83 -14 l-28 -7 28 -55
c47 -93 130 -130 293 -130 124 0 188 19 246 72 97 89 83 234 -29 298 -48 27
-81 38 -237 75 -71 17 -100 37 -100 70 0 34 32 56 91 61 71 7 129 -12 147 -48
14 -30 27 -33 120 -22 62 8 65 19 22 87 -20 32 -45 54 -82 74 -47 24 -66 27
-163 30 -74 2 -124 -2 -153 -11z"/>
<path d="M9220 3620 l0 -60 90 0 90 0 0 -220 0 -220 -125 0 -125 0 0 -60 0
-60 330 0 330 0 0 60 0 60 -115 0 -115 0 0 280 0 280 -180 0 -180 0 0 -60z"/>
</g>
</svg>
